# Made in Blockbench 4.9.4
mtllib pot.mtl

o cylinder
v 0 0.125 1.5308084989341915e-17
v 0 0 0
v 0.018648034441842935 0.125 -0.09374999999999999
v 0.018648034441842935 1.1481063742006436e-17 -0.09375
v 0.053105109126611386 0.125 -0.07947741234586625
v 0.053105109126611386 9.733175863387946e-18 -0.07947741234586626
v 0.07947741234586626 0.125 -0.05310510912661139
v 0.07947741234586626 6.5035001910275555e-18 -0.053105109126611406
v 0.09375 0.125 -0.01864803444184293
v 0.09375 2.2837255689592562e-18 -0.018648034441842945
v 0.09375 0.125 0.018648034441842945
v 0.09375 -2.2837255689592543e-18 0.01864803444184293
v 0.07947741234586629 0.125 0.05310510912661138
v 0.07947741234586629 -6.50350019102755e-18 0.053105109126611365
v 0.053105109126611386 0.12499999999999999 0.07947741234586629
v 0.053105109126611386 -9.733175863387947e-18 0.07947741234586628
v 0.018648034441842973 0.12499999999999999 0.09375000000000001
v 0.018648034441842973 -1.1481063742006436e-17 0.09375
v -0.01864803444184295 0.12499999999999999 0.09375000000000001
v -0.01864803444184295 -1.1481063742006436e-17 0.09375
v -0.053105109126611365 0.12499999999999999 0.0794774123458663
v -0.053105109126611365 -9.733175863387949e-18 0.07947741234586629
v -0.07947741234586626 0.125 0.0531051091266114
v -0.07947741234586626 -6.5035001910275525e-18 0.053105109126611386
v -0.09374999999999999 0.125 0.01864803444184299
v -0.09374999999999999 -2.28372556895926e-18 0.018648034441842976
v -0.09375 0.125 -0.018648034441842928
v -0.09375 2.283725568959256e-18 -0.01864803444184294
v -0.07947741234586629 0.125 -0.053105109126611344
v -0.07947741234586629 6.503500191027549e-18 -0.05310510912661136
v -0.053105109126611386 0.125 -0.07947741234586625
v -0.053105109126611386 9.733175863387946e-18 -0.07947741234586626
v -0.018648034441842983 0.125 -0.09374999999999997
v -0.018648034441842983 1.1481063742006434e-17 -0.09374999999999999
vt 0.12744764029053263 0.9512259843418477
vt 0.11774650441872284 1
vt 0 0.9512259843418478
vt 0 0.75
vt 0.049725 0.75
vt 0.049725 1
vt 0 1
vt 6.938893903907228e-18 0.8725514068094512
vt 0.048773650987510235 0.8822543759412965
vt 0 1
vt 0.12744764029053263 0.951228199099409
vt 0.11774639040131168 1
vt 0 0.9512281990994089
vt 0 0.75
vt 0.049725 0.75
vt 0.049725 1
vt 0 1
vt 5.551115123125783e-17 0.8725523597094673
vt 0.048771800900591064 0.8822536095986884
vt 0 1
vt 0.1274485931905488 0.9512263490124898
vt 0.11774562405870352 1
vt 0 0.9512263490124898
vt 0 0.75
vt 0.049725 0.75
vt 0.049725 1
vt 0 1
vt 0 0.8725523597094673
vt 0.048774015658152294 0.8822534955812772
vt 4.85722573273506e-17 1
vt 0.125 0.950275
vt 0.125 1
vt 0 0.9751375
vt 0 0.75
vt 0.049725 0.75
vt 0.049725 1
vt 0 1
vt 0.125 0.950275
vt 0.125 1
vt 0 0.9751375
vt 0 0.8725523597094673
vt 0.048774015658152294 0.8822534955812772
vt 4.85722573273506e-17 1
vt 0 0.75
vt 0.049725 0.75
vt 0.049725 1
vt 0 1
vt 0.1274485931905488 0.9512263490124898
vt 0.11774562405870352 1
vt 0 0.9512263490124898
vt 5.551115123125783e-17 0.8725523597094673
vt 0.048771800900591064 0.8822536095986884
vt 0 1
vt 0 0.75
vt 0.049725 0.75
vt 0.049725 1
vt 0 1
vt 0.12744764029053263 0.951228199099409
vt 0.11774639040131168 1
vt 0 0.9512281990994089
vt 6.938893903907228e-18 0.8725514068094512
vt 0.048773650987510235 0.8822543759412965
vt 0 1
vt 0 0.75
vt 0.049725 0.75
vt 0.049725 1
vt 0 1
vt 0.12744764029053263 0.9512259843418477
vt 0.11774650441872284 1
vt 0 0.9512259843418478
vt 0 0.875
vt 0.049725 0.875
vt 0.0248625 1
vt 0 0.75
vt 0.049725 0.75
vt 0.049725 1
vt 0 1
vt 0.049725 1
vt 0 1
vt 0.0248625 0.875
vt 0 1
vt 0.00970113587180979 0.9512259843418477
vt 0.12744764029053263 1
vt 0 0.75
vt 0.049725 0.75
vt 0.049725 1
vt 0 1
vt 0.04877365098751023 1
vt 0 0.9902970308681547
vt 0.048773650987510235 0.8725514068094512
vt 0 1
vt 0.009701249889220942 0.9512281990994089
vt 0.12744764029053263 1
vt 0 0.75
vt 0.049725 0.75
vt 0.049725 1
vt 0 1
vt 0.04877180090059101 1
vt 0 0.9902987501107791
vt 0.048771800900591064 0.8725523597094673
vt 0 1
vt 0.009702969131845277 0.9512263490124898
vt 0.1274485931905488 1
vt 0 0.75
vt 0.049725 0.75
vt 0.049725 1
vt 0 1
vt 0.04877401565815229 1
vt 0 0.9902988641281902
vt 0.04877401565815229 0.8725523597094673
vt 0 1
vt 0 0.950275
vt 0.125 0.9751375
vt 0 0.75
vt 0.049725 0.75
vt 0.049725 1
vt 0 1
vt 0 1
vt 0 0.950275
vt 0.125 0.9751375
vt 0.04877401565815229 1
vt 0 0.9902988641281902
vt 0.04877401565815229 0.8725523597094673
vt 0 0.75
vt 0.049725 0.75
vt 0.049725 1
vt 0 1
vt 0 1
vt 0.009702969131845277 0.9512263490124898
vt 0.1274485931905488 1
vt 0.04877180090059101 1
vt 0 0.9902987501107791
vt 0.048771800900591064 0.8725523597094673
vt 0 0.75
vt 0.049725 0.75
vt 0.049725 1
vt 0 1
vt 0 1
vt 0.009701249889220942 0.9512281990994089
vt 0.12744764029053263 1
vt 0.04877365098751023 1
vt 0 0.9902970308681547
vt 0.048773650987510235 0.8725514068094512
vt 0 0.75
vt 0.049725 0.75
vt 0.049725 1
vt 0 1
vt 0 1
vt 0.00970113587180979 0.9512259843418477
vt 0.12744764029053263 1
vt 0.049725 1
vt 0 1
vt 0.0248625 0.875
vt 0 0.75
vt 0.049725 0.75
vt 0.049725 1
vt 0 1
vt 0 0.875
vt 0.049725 0.875
vt 0.0248625 1
vn 0 1 1.2246467991473532e-16
vn 0.38268343236508984 1.1314261122877003e-16 -0.9238795325112867
vn 0 -1 -1.2246467991473532e-16
vn 0 1 1.2246467991473532e-16
vn 0.7071067811865472 8.659560562354937e-17 -0.7071067811865478
vn 0 -1 -1.2246467991473532e-16
vn 0 1 1.2246467991473532e-16
vn 0.9238795325112867 4.6865204053262986e-17 -0.3826834323650898
vn 0 -1 -1.2246467991473532e-16
vn 0 1 1.2246467991473532e-16
vn 1 0 0
vn 0 -1 -1.2246467991473532e-16
vn 0 1 1.2246467991473532e-16
vn 0.9238795325112871 -4.686520405326295e-17 0.3826834323650895
vn 0 -1 -1.2246467991473532e-16
vn 0 1 1.2246467991473532e-16
vn 0.7071067811865477 -8.659560562354932e-17 0.7071067811865475
vn 0 -1 -1.2246467991473532e-16
vn 0 1 1.2246467991473532e-16
vn 0.38268343236509 -1.1314261122877005e-16 0.9238795325112868
vn 0 -1 -1.2246467991473532e-16
vn 0 1 1.2246467991473532e-16
vn 0 -1.2246467991473532e-16 1
vn 0 -1 -1.2246467991473532e-16
vn 0 1 1.2246467991473532e-16
vn -0.3826834323650896 -1.1314261122877005e-16 0.9238795325112868
vn 0 -1 -1.2246467991473532e-16
vn 0 1 1.2246467991473532e-16
vn -0.7071067811865476 -8.659560562354932e-17 0.7071067811865475
vn 0 -1 -1.2246467991473532e-16
vn 0 1 1.2246467991473532e-16
vn -0.9238795325112868 -4.686520405326301e-17 0.38268343236509
vn 0 -1 -1.2246467991473532e-16
vn 0 1 1.2246467991473532e-16
vn -1 -4.5568846601740054e-32 3.720978704510301e-16
vn 0 -1 -1.2246467991473532e-16
vn 0 1 1.2246467991473532e-16
vn -0.9238795325112868 4.686520405326296e-17 -0.3826834323650896
vn 0 -1 -1.2246467991473532e-16
vn 0 1 1.2246467991473532e-16
vn -0.7071067811865476 8.659560562354934e-17 -0.7071067811865476
vn 0 -1 -1.2246467991473532e-16
vn 0 1 1.2246467991473532e-16
vn -0.38268343236509006 1.1314261122877003e-16 -0.9238795325112866
vn 0 -1 -1.2246467991473532e-16
vn 0 1 1.2246467991473532e-16
vn -3.720978704510301e-16 1.2246467991473532e-16 -1
vn 0 -1 -1.2246467991473532e-16
usemtl none
f 5/1/1 3/2/1 1/3/1
f 3/4/2 5/5/2 6/6/2 4/7/2
f 4/8/3 6/9/3 2/10/3
f 7/11/4 5/12/4 1/13/4
f 5/14/5 7/15/5 8/16/5 6/17/5
f 6/18/6 8/19/6 2/20/6
f 9/21/7 7/22/7 1/23/7
f 7/24/8 9/25/8 10/26/8 8/27/8
f 8/28/9 10/29/9 2/30/9
f 11/31/10 9/32/10 1/33/10
f 9/34/11 11/35/11 12/36/11 10/37/11
f 10/38/12 12/39/12 2/40/12
f 13/41/13 11/42/13 1/43/13
f 11/44/14 13/45/14 14/46/14 12/47/14
f 12/48/15 14/49/15 2/50/15
f 15/51/16 13/52/16 1/53/16
f 13/54/17 15/55/17 16/56/17 14/57/17
f 14/58/18 16/59/18 2/60/18
f 17/61/19 15/62/19 1/63/19
f 15/64/20 17/65/20 18/66/20 16/67/20
f 16/68/21 18/69/21 2/70/21
f 19/71/22 17/72/22 1/73/22
f 17/74/23 19/75/23 20/76/23 18/77/23
f 18/78/24 20/79/24 2/80/24
f 21/81/25 19/82/25 1/83/25
f 19/84/26 21/85/26 22/86/26 20/87/26
f 20/88/27 22/89/27 2/90/27
f 23/91/28 21/92/28 1/93/28
f 21/94/29 23/95/29 24/96/29 22/97/29
f 22/98/30 24/99/30 2/100/30
f 25/101/31 23/102/31 1/103/31
f 23/104/32 25/105/32 26/106/32 24/107/32
f 24/108/33 26/109/33 2/110/33
f 27/111/34 25/112/34 1/113/34
f 25/114/35 27/115/35 28/116/35 26/117/35
f 26/118/36 28/119/36 2/120/36
f 29/121/37 27/122/37 1/123/37
f 27/124/38 29/125/38 30/126/38 28/127/38
f 28/128/39 30/129/39 2/130/39
f 31/131/40 29/132/40 1/133/40
f 29/134/41 31/135/41 32/136/41 30/137/41
f 30/138/42 32/139/42 2/140/42
f 33/141/43 31/142/43 1/143/43
f 31/144/44 33/145/44 34/146/44 32/147/44
f 32/148/45 34/149/45 2/150/45
f 3/151/46 33/152/46 1/153/46
f 33/154/47 3/155/47 4/156/47 34/157/47
f 34/158/48 4/159/48 2/160/48
o cone
v 0 0.15625 1.9135106236677395e-17
v 0 -0.03125 -3.827021247335479e-18
v 0.02486404592245725 0.15625000000000003 -0.12499999999999999
v 0.07080681216881518 0.15625 -0.10596988312782168
v 0.1059698831278217 0.15625 -0.0708068121688152
v 0.125 0.15625 -0.024864045922457237
v 0.125 0.15625 0.02486404592245726
v 0.10596988312782173 0.15625 0.07080681216881517
v 0.07080681216881518 0.15625 0.10596988312782171
v 0.024864045922457292 0.15624999999999997 0.12500000000000003
v -0.024864045922457258 0.15624999999999997 0.12500000000000003
v -0.07080681216881515 0.15625 0.10596988312782173
v -0.1059698831278217 0.15625 0.0708068121688152
v -0.12499999999999999 0.15625 0.02486404592245732
v -0.125 0.15625 -0.024864045922457233
v -0.10596988312782173 0.15625 -0.07080681216881514
v -0.07080681216881518 0.15625 -0.10596988312782168
v -0.024864045922457306 0.15625000000000003 -0.12499999999999996
vt 0.09558529915244551 0.9634200842754747
vt 0.08831078510344377 1
vt 0 0.9634200842754748
vt 0 0.733
vt 0.0373 0.733
vt 0.01865 1
vt 0.09558529915244551 0.9634253188833792
vt 0.08831105318860147 1
vt 0 0.9634253188833791
vt 0 0.733
vt 0.0373 0.733
vt 0.01865 1
vt 0.0955870545628434 0.9634207560480772
vt 0.08830916331824362 1
vt 0 0.9634207560480773
vt 0 0.733
vt 0.0373 0.733
vt 0.01865 1
vt 0.09375 0.9627
vt 0.09375 1
vt 0 0.98135
vt 0 0.733
vt 0.0373 0.733
vt 0.01865 1
vt 4.163336342344337e-17 0.9044147008475545
vt 0.036579915724525375 0.9116892148965563
vt 0 1
vt 0 0.733
vt 0.0373 0.733
vt 0.01865 1
vt 0 0.9044147008475545
vt 0.03657468111662082 0.9116889468113984
vt 2.7755575615628914e-17 1
vt 0 0.733
vt 0.0373 0.733
vt 0.01865 1
vt 0 0.9044129454371566
vt 0.03657924395192276 0.9116908366817564
vt 1.734723475976807e-17 1
vt 0 0.733
vt 0.0373 0.733
vt 0.01865 1
vt 0 0.90625
vt 0.0373 0.90625
vt 0.01865 1
vt 0 0.733
vt 0.0373 0.733
vt 0.01865 1
vt 0 1
vt 0.007274514049001771 0.9634200842754747
vt 0.09558529915244551 1
vt 0 0.733
vt 0.0373 0.733
vt 0.01865 1
vt 0 1
vt 0.007274245963844017 0.9634253188833792
vt 0.09558529915244551 1
vt 0 0.733
vt 0.0373 0.733
vt 0.01865 1
vt 0 1
vt 0.0072778912445997795 0.9634207560480772
vt 0.0955870545628434 1
vt 0 0.733
vt 0.0373 0.733
vt 0.01865 1
vt 0 1
vt 0 0.9627
vt 0.09375 0.98135
vt 0 0.733
vt 0.0373 0.733
vt 0.01865 1
vt 0.03657991572452534 1
vt 0 0.9927254859509982
vt 0.036579915724525326 0.9044147008475545
vt 0 0.733
vt 0.0373 0.733
vt 0.01865 1
vt 0.03657468111662081 1
vt 0 0.9927257540361559
vt 0.03657468111662082 0.9044147008475545
vt 0 0.733
vt 0.0373 0.733
vt 0.01865 1
vt 0.03657924395192276 1
vt 0 0.9927221087554002
vt 0.03657924395192274 0.9044129454371566
vt 0 0.733
vt 0.0373 0.733
vt 0.01865 1
vt 0.0373 1
vt 0 1
vt 0.01865 0.90625
vt 0 0.733
vt 0.0373 0.733
vt 0.01865 1
vn 0 1 1.2246467991473532e-16
vn 0.3184118625375892 -0.554700196225229 -0.7687142369587258
vn 0 1 1.2246467991473532e-16
vn 0.5883484054145519 -0.5547001962252291 -0.5883484054145525
vn 0 1 1.2246467991473532e-16
vn 0.7687142369587256 -0.5547001962252291 -0.31841186253758913
vn 0 1 1.2246467991473532e-16
vn 0.8320502943378437 -0.5547001962252291 -6.793118197936356e-17
vn 0 1 1.2246467991473532e-16
vn 0.7687142369587258 -0.5547001962252291 0.3184118625375888
vn 0 1 1.2246467991473532e-16
vn 0.5883484054145521 -0.5547001962252293 0.588348405414552
vn 0 1 1.2246467991473532e-16
vn 0.3184118625375895 -0.5547001962252294 0.7687142369587255
vn 0 1 1.2246467991473532e-16
vn 0 -0.5547001962252293 0.8320502943378436
vn 0 1 1.2246467991473532e-16
vn -0.31841186253758924 -0.5547001962252294 0.7687142369587256
vn 0 1 1.2246467991473532e-16
vn -0.588348405414552 -0.5547001962252291 0.5883484054145521
vn 0 1 1.2246467991473532e-16
vn -0.7687142369587256 -0.5547001962252293 0.3184118625375892
vn 0 1 1.2246467991473532e-16
vn -0.8320502943378438 -0.5547001962252291 1.6427192499408478e-16
vn 0 1 1.2246467991473532e-16
vn -0.7687142369587256 -0.5547001962252291 -0.31841186253758896
vn 0 1 1.2246467991473532e-16
vn -0.5883484054145521 -0.554700196225229 -0.5883484054145522
vn 0 1 1.2246467991473532e-16
vn -0.31841186253758913 -0.554700196225229 -0.7687142369587258
vn 0 1 1.2246467991473532e-16
vn -4.644062139468967e-16 -0.554700196225229 -0.8320502943378439
usemtl none
f 38/161/49 37/162/49 35/163/49
f 37/164/50 38/165/50 36/166/50
f 39/167/51 38/168/51 35/169/51
f 38/170/52 39/171/52 36/172/52
f 40/173/53 39/174/53 35/175/53
f 39/176/54 40/177/54 36/178/54
f 41/179/55 40/180/55 35/181/55
f 40/182/56 41/183/56 36/184/56
f 42/185/57 41/186/57 35/187/57
f 41/188/58 42/189/58 36/190/58
f 43/191/59 42/192/59 35/193/59
f 42/194/60 43/195/60 36/196/60
f 44/197/61 43/198/61 35/199/61
f 43/200/62 44/201/62 36/202/62
f 45/203/63 44/204/63 35/205/63
f 44/206/64 45/207/64 36/208/64
f 46/209/65 45/210/65 35/211/65
f 45/212/66 46/213/66 36/214/66
f 47/215/67 46/216/67 35/217/67
f 46/218/68 47/219/68 36/220/68
f 48/221/69 47/222/69 35/223/69
f 47/224/70 48/225/70 36/226/70
f 49/227/71 48/228/71 35/229/71
f 48/230/72 49/231/72 36/232/72
f 50/233/73 49/234/73 35/235/73
f 49/236/74 50/237/74 36/238/74
f 51/239/75 50/240/75 35/241/75
f 50/242/76 51/243/76 36/244/76
f 52/245/77 51/246/77 35/247/77
f 51/248/78 52/249/78 36/250/78
f 37/251/79 52/252/79 35/253/79
f 52/254/80 37/255/80 36/256/80